<?xml version="1.0" encoding="UTF-8" standalone="no"?>
<svg
   xmlns:dc="http://purl.org/dc/elements/1.1/"
   xmlns:cc="http://creativecommons.org/ns#"
   xmlns:rdf="http://www.w3.org/1999/02/22-rdf-syntax-ns#"
   xmlns:svg="http://www.w3.org/2000/svg"
   xmlns="http://www.w3.org/2000/svg"
   xmlns:sodipodi="http://sodipodi.sourceforge.net/DTD/sodipodi-0.dtd"
   xmlns:inkscape="http://www.inkscape.org/namespaces/inkscape"
   version="1.1"
   width="76"
   height="76"
   viewBox="0 0 76.00 76.00"
   enable-background="new 0 0 76.00 76.00"
   xml:space="preserve"
   id="svg2"
   inkscape:version="0.48.3.1 r9886"
   sodipodi:docname="window.horiz.svg"><metadata
   id="metadata10"><rdf:RDF><cc:Work
       rdf:about=""><dc:format>image/svg+xml</dc:format><dc:type
         rdf:resource="http://purl.org/dc/dcmitype/StillImage" /><dc:title></dc:title></cc:Work></rdf:RDF></metadata><defs
   id="defs8" /><sodipodi:namedview
   pagecolor="#ffffff"
   bordercolor="#666666"
   borderopacity="1"
   objecttolerance="10"
   gridtolerance="10"
   guidetolerance="10"
   inkscape:pageopacity="0"
   inkscape:pageshadow="2"
   inkscape:window-width="1114"
   inkscape:window-height="1187"
   id="namedview6"
   showgrid="true"
   inkscape:zoom="12.421053"
   inkscape:cx="29.781478"
   inkscape:cy="39.782129"
   inkscape:window-x="276"
   inkscape:window-y="136"
   inkscape:window-maximized="0"
   inkscape:current-layer="svg2"><inkscape:grid
     type="xygrid"
     id="grid2987"
     empspacing="5"
     visible="true"
     enabled="true"
     snapvisiblegridlinesonly="true" /></sodipodi:namedview>
	
<rect
   style="fill:#000000;fill-opacity:1;fill-rule:nonzero;stroke:none"
   id="rect3013"
   width="24"
   height="10"
   x="26"
   y="-50"
   transform="matrix(0,1,-1,0,0,0)" /><rect
   y="-36"
   x="26"
   height="10"
   width="24"
   id="rect3015"
   style="fill:#000000;fill-opacity:1;fill-rule:nonzero;stroke:none"
   transform="matrix(0,1,-1,0,0,0)" /><path
   sodipodi:type="arc"
   style="fill:#000000;fill-opacity:1;fill-rule:nonzero;stroke:none"
   id="path3055"
   sodipodi:cx="38"
   sodipodi:cy="38"
   sodipodi:rx="20"
   sodipodi:ry="20"
   d="m 58,38 a 20,20 0 1 1 -40,0 20,20 0 1 1 40,0 z" /><path
   sodipodi:type="arc"
   style="fill:#ffffff;fill-opacity:1;fill-rule:nonzero;stroke:none"
   id="path3057"
   sodipodi:cx="38"
   sodipodi:cy="38"
   sodipodi:rx="16"
   sodipodi:ry="16"
   d="m 54,38 a 16,16 0 1 1 -32,0 16,16 0 1 1 32,0 z" /><path
   style="fill:#000000;fill-opacity:1;fill-rule:nonzero;stroke:none"
   d="M 33,43 48,48 43,33 28,28 33,43 z M 35.429719,40.570281 38,38 l 2.570281,-2.570281 3.212852,8.353414 -8.353414,-3.212852 z"
   id="rect3061"
   inkscape:connector-curvature="0" /></svg>